<svg width="6785" height="6785" viewBox="0 0 6785 6785" fill="none" xmlns="http://www.w3.org/2000/svg">
<g clip-path="url(#clip0_120_2)">
<rect width="6785" height="6785" rx="3392.5" fill="white"/>
<path d="M3393.11 3176.36C3836.66 3176.36 4196.22 2816.8 4196.22 2373.25C4196.22 1929.71 3836.66 1570.14 3393.11 1570.14C2949.57 1570.14 2590 1929.71 2590 2373.25C2590 2816.8 2949.57 3176.36 3393.11 3176.36Z" fill="#C2CEFF"/>
<path d="M4998.72 4782.27C4306.04 4782.27 3392.5 5183.83 3392.5 5183.83V2975.28C3392.5 2975.28 4296 2573.72 5199.49 2573.72L4998.72 4782.27Z" fill="#7580FF"/>
<path d="M1786.28 4782.27C2478.96 4782.27 3392.5 5183.83 3392.5 5183.83V2975.28C3392.5 2975.28 2489 2573.72 1585.51 2573.72L1786.28 4782.27Z" fill="#ACB3FF"/>
<path d="M5099.11 3979.16H5199.5C5259.73 3979.16 5299.88 3939.01 5299.88 3878.77V3477.22C5299.88 3416.99 5259.73 3376.83 5199.5 3376.83H5099.11C4928.45 3376.83 4797.94 3507.34 4797.94 3678C4797.94 3848.66 4928.45 3979.16 5099.11 3979.16ZM1685.9 3376.83H1585.51C1525.27 3376.83 1485.12 3416.99 1485.12 3477.22V3878.77C1485.12 3939.01 1525.27 3979.16 1585.51 3979.16H1685.9C1856.56 3979.16 1987.06 3848.66 1987.06 3678C1987.06 3507.34 1856.56 3376.83 1685.9 3376.83Z" fill="#C2CEFF"/>
</g>
<defs>
<clipPath id="clip0_120_2">
<rect width="6785" height="6785" rx="3392.5" fill="white"/>
</clipPath>
</defs>
</svg>
